<?xml version="1.0" encoding="UTF-8" standalone="no"?>
<!DOCTYPE svg PUBLIC "-//W3C//DTD SVG 1.1//EN"
 "http://www.w3.org/Graphics/SVG/1.1/DTD/svg11.dtd">
<!-- Generated by graphviz version 2.40.1 (20161225.0304)
 -->
<!-- Title: %0 Pages: 1 -->
<svg width="210pt" height="306pt"
 viewBox="0.00 0.00 210.38 306.00" xmlns="http://www.w3.org/2000/svg" xmlns:xlink="http://www.w3.org/1999/xlink">
<g id="graph0" class="graph" transform="scale(1 1) rotate(0) translate(4 302)">
<title>%0</title>
<polygon fill="#ffffff" stroke="transparent" points="-4,4 -4,-302 206.381,-302 206.381,4 -4,4"/>
<!-- actions -->
<g id="node1" class="node">
<title>actions</title>
<g id="a_node1"><a xlink:title="actions">
<polygon fill="#ffffff" stroke="#000000" points="6.945,-161.5 6.945,-297.5 123.813,-297.5 123.813,-161.5 6.945,-161.5"/>
<text text-anchor="middle" x="65.379" y="-284.5" font-family="Helvetica,sans-Serif" font-size="10.00" fill="#000000">actions</text>
<polyline fill="none" stroke="#000000" points="6.945,-277.5 123.813,-277.5 "/>
<text text-anchor="start" x="14.945" y="-264.5" font-family="Helvetica,sans-Serif" font-size="10.00" fill="#000000">+ trx_id : text</text>
<text text-anchor="start" x="14.945" y="-252.5" font-family="Helvetica,sans-Serif" font-size="10.00" fill="#000000">+ contract_name : text</text>
<text text-anchor="start" x="14.945" y="-240.5" font-family="Helvetica,sans-Serif" font-size="10.00" fill="#000000">+ action : text</text>
<text text-anchor="start" x="14.945" y="-228.5" font-family="Helvetica,sans-Serif" font-size="10.00" fill="#000000">+ authorization : object</text>
<text text-anchor="start" x="14.945" y="-216.5" font-family="Helvetica,sans-Serif" font-size="10.00" fill="#000000">+ data : object</text>
<text text-anchor="start" x="14.945" y="-204.5" font-family="Helvetica,sans-Serif" font-size="10.00" fill="#000000">+ rawData : object</text>
<text text-anchor="start" x="14.945" y="-192.5" font-family="Helvetica,sans-Serif" font-size="10.00" fill="#000000">+ createdAt : date</text>
<text text-anchor="start" x="14.945" y="-180.5" font-family="Helvetica,sans-Serif" font-size="10.00" fill="#000000">+ updatedAt : date</text>
<text text-anchor="start" x="14.945" y="-168.5" font-family="Helvetica,sans-Serif" font-size="10.00" fill="#000000">+ id : serial</text>
</a>
</g>
</g>
<!-- actions&#45;&gt;actions -->
<g id="edge1" class="edge">
<title>actions&#45;&gt;actions</title>
<path fill="none" stroke="#000000" stroke-dasharray="5,2" d="M124.0237,-245.7382C134.4972,-243.6276 141.813,-238.2148 141.813,-229.5 141.813,-223.7809 138.6624,-219.4839 133.5362,-216.609"/>
<polygon fill="#000000" stroke="#000000" points="134.6185,-213.2795 124.0237,-213.2618 132.2951,-219.8826 134.6185,-213.2795"/>
<text text-anchor="middle" x="172.097" y="-226.5" font-family="Helvetica,sans-Serif" font-size="10.00" fill="#000000">inline_actions</text>
</g>
<!-- blocks -->
<g id="node2" class="node">
<title>blocks</title>
<g id="a_node2"><a xlink:title="blocks">
<polygon fill="#ffffff" stroke="#000000" points="0,-.5 0,-112.5 130.758,-112.5 130.758,-.5 0,-.5"/>
<text text-anchor="middle" x="65.379" y="-99.5" font-family="Helvetica,sans-Serif" font-size="10.00" fill="#000000">blocks</text>
<polyline fill="none" stroke="#000000" points="0,-92.5 130.758,-92.5 "/>
<text text-anchor="start" x="8" y="-79.5" font-family="Helvetica,sans-Serif" font-size="10.00" fill="#000000">+ block_num : integer</text>
<text text-anchor="start" x="8" y="-67.5" font-family="Helvetica,sans-Serif" font-size="10.00" fill="#000000">+ block_time : date</text>
<text text-anchor="start" x="8" y="-55.5" font-family="Helvetica,sans-Serif" font-size="10.00" fill="#000000">+ producer_block_id : text</text>
<text text-anchor="start" x="8" y="-43.5" font-family="Helvetica,sans-Serif" font-size="10.00" fill="#000000">+ producer : text</text>
<text text-anchor="start" x="8" y="-31.5" font-family="Helvetica,sans-Serif" font-size="10.00" fill="#000000">+ status : enum</text>
<text text-anchor="start" x="8" y="-19.5" font-family="Helvetica,sans-Serif" font-size="10.00" fill="#000000">+ createdAt : date</text>
<text text-anchor="start" x="8" y="-7.5" font-family="Helvetica,sans-Serif" font-size="10.00" fill="#000000">+ updatedAt : date</text>
</a>
</g>
</g>
<!-- actions&#45;&gt;blocks -->
<g id="edge2" class="edge">
<title>actions&#45;&gt;blocks</title>
<path fill="none" stroke="#000000" stroke-dasharray="5,2" d="M43.2414,-161.4019C41.8941,-151.2576 41.5914,-140.8891 43.042,-131 43.4554,-128.1819 43.9523,-125.3224 44.5162,-122.4475"/>
<polygon fill="#000000" stroke="#000000" points="47.9411,-123.1689 46.6672,-112.6509 41.1039,-121.6676 47.9411,-123.1689"/>
<text text-anchor="middle" x="55.0475" y="-134" font-family="Helvetica,sans-Serif" font-size="10.00" fill="#000000">block</text>
</g>
<!-- blocks&#45;&gt;actions -->
<g id="edge3" class="edge">
<title>blocks&#45;&gt;actions</title>
<path fill="none" stroke="#000000" stroke-dasharray="5,2" d="M66.2131,-112.6366C66.2812,-118.8328 66.3391,-125.0499 66.379,-131 66.4233,-137.6067 66.4315,-144.4625 66.4134,-151.3419"/>
<polygon fill="#000000" stroke="#000000" points="62.9133,-151.3963 66.3693,-161.4115 69.9132,-151.427 62.9133,-151.3963"/>
<text text-anchor="middle" x="82.2165" y="-134" font-family="Helvetica,sans-Serif" font-size="10.00" fill="#000000">actions</text>
</g>
</g>
</svg>
