<?xml version="1.0" encoding="UTF-8" standalone="no"?>
<!DOCTYPE svg PUBLIC "-//W3C//DTD SVG 1.1//EN"
 "http://www.w3.org/Graphics/SVG/1.1/DTD/svg11.dtd">
<!-- Generated by graphviz version 2.40.1 (20161225.0304)
 -->
<!-- Title: %0 Pages: 1 -->
<svg width="205pt" height="318pt"
 viewBox="0.00 0.00 204.82 318.00" xmlns="http://www.w3.org/2000/svg" xmlns:xlink="http://www.w3.org/1999/xlink">
<g id="graph0" class="graph" transform="scale(1 1) rotate(0) translate(4 314)">
<title>%0</title>
<polygon fill="#ffffff" stroke="transparent" points="-4,4 -4,-314 200.822,-314 200.822,4 -4,4"/>
<!-- actions -->
<g id="node1" class="node">
<title>actions</title>
<g id="a_node1"><a xlink:title="actions">
<polygon fill="#ffffff" stroke="#000000" points="6.945,-173.5 6.945,-309.5 123.813,-309.5 123.813,-173.5 6.945,-173.5"/>
<text text-anchor="middle" x="65.379" y="-296.5" font-family="Helvetica,sans-Serif" font-size="10.00" fill="#000000">actions</text>
<polyline fill="none" stroke="#000000" points="6.945,-289.5 123.813,-289.5 "/>
<text text-anchor="start" x="14.945" y="-276.5" font-family="Helvetica,sans-Serif" font-size="10.00" fill="#000000">+ trx_id : text</text>
<text text-anchor="start" x="14.945" y="-264.5" font-family="Helvetica,sans-Serif" font-size="10.00" fill="#000000">+ contract_name : text</text>
<text text-anchor="start" x="14.945" y="-252.5" font-family="Helvetica,sans-Serif" font-size="10.00" fill="#000000">+ action : text</text>
<text text-anchor="start" x="14.945" y="-240.5" font-family="Helvetica,sans-Serif" font-size="10.00" fill="#000000">+ authorization : object</text>
<text text-anchor="start" x="14.945" y="-228.5" font-family="Helvetica,sans-Serif" font-size="10.00" fill="#000000">+ data : object</text>
<text text-anchor="start" x="14.945" y="-216.5" font-family="Helvetica,sans-Serif" font-size="10.00" fill="#000000">+ rawData : object</text>
<text text-anchor="start" x="14.945" y="-204.5" font-family="Helvetica,sans-Serif" font-size="10.00" fill="#000000">+ createdAt : date</text>
<text text-anchor="start" x="14.945" y="-192.5" font-family="Helvetica,sans-Serif" font-size="10.00" fill="#000000">+ updatedAt : date</text>
<text text-anchor="start" x="14.945" y="-180.5" font-family="Helvetica,sans-Serif" font-size="10.00" fill="#000000">+ id : serial</text>
</a>
</g>
</g>
<!-- actions&#45;&gt;actions -->
<g id="edge1" class="edge">
<title>actions&#45;&gt;actions</title>
<path fill="none" stroke="#000000" stroke-dasharray="5,2" d="M124.0237,-257.7382C134.4972,-255.6276 141.813,-250.2148 141.813,-241.5 141.813,-235.7809 138.6624,-231.4839 133.5362,-228.609"/>
<polygon fill="#000000" stroke="#000000" points="134.6185,-225.2795 124.0237,-225.2618 132.2951,-231.8826 134.6185,-225.2795"/>
<text text-anchor="middle" x="169.3175" y="-238.5" font-family="Helvetica,sans-Serif" font-size="10.00" fill="#000000">inlineactions</text>
</g>
<!-- blocks -->
<g id="node2" class="node">
<title>blocks</title>
<g id="a_node2"><a xlink:title="blocks">
<polygon fill="#ffffff" stroke="#000000" points="0,-.5 0,-124.5 130.758,-124.5 130.758,-.5 0,-.5"/>
<text text-anchor="middle" x="65.379" y="-111.5" font-family="Helvetica,sans-Serif" font-size="10.00" fill="#000000">blocks</text>
<polyline fill="none" stroke="#000000" points="0,-104.5 130.758,-104.5 "/>
<text text-anchor="start" x="8" y="-91.5" font-family="Helvetica,sans-Serif" font-size="10.00" fill="#000000">+ block_time : date</text>
<text text-anchor="start" x="8" y="-79.5" font-family="Helvetica,sans-Serif" font-size="10.00" fill="#000000">+ block_num : integer</text>
<text text-anchor="start" x="8" y="-67.5" font-family="Helvetica,sans-Serif" font-size="10.00" fill="#000000">+ producer_block_id : text</text>
<text text-anchor="start" x="8" y="-55.5" font-family="Helvetica,sans-Serif" font-size="10.00" fill="#000000">+ producer : text</text>
<text text-anchor="start" x="8" y="-43.5" font-family="Helvetica,sans-Serif" font-size="10.00" fill="#000000">+ status : enum</text>
<text text-anchor="start" x="8" y="-31.5" font-family="Helvetica,sans-Serif" font-size="10.00" fill="#000000">+ createdAt : date</text>
<text text-anchor="start" x="8" y="-19.5" font-family="Helvetica,sans-Serif" font-size="10.00" fill="#000000">+ updatedAt : date</text>
<text text-anchor="start" x="8" y="-7.5" font-family="Helvetica,sans-Serif" font-size="10.00" fill="#000000">+ id : serial</text>
</a>
</g>
</g>
<!-- actions&#45;&gt;blocks -->
<g id="edge2" class="edge">
<title>actions&#45;&gt;blocks</title>
<path fill="none" stroke="#000000" stroke-dasharray="5,2" d="M41.462,-173.4807C39.9653,-163.3252 39.5734,-152.9325 41.042,-143 41.4387,-140.3167 41.9061,-137.5989 42.4317,-134.8657"/>
<polygon fill="#000000" stroke="#000000" points="45.8862,-135.4488 44.5675,-124.9363 39.0428,-133.9767 45.8862,-135.4488"/>
<text text-anchor="middle" x="55.5475" y="-146" font-family="Helvetica,sans-Serif" font-size="10.00" fill="#000000">blocks</text>
</g>
<!-- blocks&#45;&gt;actions -->
<g id="edge3" class="edge">
<title>blocks&#45;&gt;actions</title>
<path fill="none" stroke="#000000" stroke-dasharray="5,2" d="M68.7855,-124.894C69.0274,-131.0106 69.2331,-137.1248 69.379,-143 69.5431,-149.6099 69.5666,-156.468 69.4882,-163.3489"/>
<polygon fill="#000000" stroke="#000000" points="65.9875,-163.3581 69.3048,-173.4202 72.9864,-163.4856 65.9875,-163.3581"/>
<text text-anchor="middle" x="85.2165" y="-146" font-family="Helvetica,sans-Serif" font-size="10.00" fill="#000000">actions</text>
</g>
</g>
</svg>
