<?xml version="1.0" encoding="UTF-8" standalone="no"?>
<!DOCTYPE svg PUBLIC "-//W3C//DTD SVG 1.1//EN"
 "http://www.w3.org/Graphics/SVG/1.1/DTD/svg11.dtd">
<!-- Generated by graphviz version 2.40.1 (20161225.0304)
 -->
<!-- Title: %0 Pages: 1 -->
<svg width="210pt" height="318pt"
 viewBox="0.00 0.00 210.38 318.00" xmlns="http://www.w3.org/2000/svg" xmlns:xlink="http://www.w3.org/1999/xlink">
<g id="graph0" class="graph" transform="scale(1 1) rotate(0) translate(4 314)">
<title>%0</title>
<polygon fill="#ffffff" stroke="transparent" points="-4,4 -4,-314 206.381,-314 206.381,4 -4,4"/>
<!-- blocks -->
<g id="node1" class="node">
<title>blocks</title>
<g id="a_node1"><a xlink:title="blocks">
<polygon fill="#ffffff" stroke="#000000" points="0,-185.5 0,-309.5 130.758,-309.5 130.758,-185.5 0,-185.5"/>
<text text-anchor="middle" x="65.379" y="-296.5" font-family="Helvetica,sans-Serif" font-size="10.00" fill="#000000">blocks</text>
<polyline fill="none" stroke="#000000" points="0,-289.5 130.758,-289.5 "/>
<text text-anchor="start" x="8" y="-276.5" font-family="Helvetica,sans-Serif" font-size="10.00" fill="#000000">+ block_num : integer</text>
<text text-anchor="start" x="8" y="-264.5" font-family="Helvetica,sans-Serif" font-size="10.00" fill="#000000">+ block_time : date</text>
<text text-anchor="start" x="8" y="-252.5" font-family="Helvetica,sans-Serif" font-size="10.00" fill="#000000">+ producer_block_id : text</text>
<text text-anchor="start" x="8" y="-240.5" font-family="Helvetica,sans-Serif" font-size="10.00" fill="#000000">+ producer : text</text>
<text text-anchor="start" x="8" y="-228.5" font-family="Helvetica,sans-Serif" font-size="10.00" fill="#000000">+ status : enum</text>
<text text-anchor="start" x="8" y="-216.5" font-family="Helvetica,sans-Serif" font-size="10.00" fill="#000000">+ createdAt : date</text>
<text text-anchor="start" x="8" y="-204.5" font-family="Helvetica,sans-Serif" font-size="10.00" fill="#000000">+ updatedAt : date</text>
<text text-anchor="start" x="8" y="-192.5" font-family="Helvetica,sans-Serif" font-size="10.00" fill="#000000">+ id : serial</text>
</a>
</g>
</g>
<!-- actions -->
<g id="node2" class="node">
<title>actions</title>
<g id="a_node2"><a xlink:title="actions">
<polygon fill="#ffffff" stroke="#000000" points="6.945,-.5 6.945,-136.5 123.813,-136.5 123.813,-.5 6.945,-.5"/>
<text text-anchor="middle" x="65.379" y="-123.5" font-family="Helvetica,sans-Serif" font-size="10.00" fill="#000000">actions</text>
<polyline fill="none" stroke="#000000" points="6.945,-116.5 123.813,-116.5 "/>
<text text-anchor="start" x="14.945" y="-103.5" font-family="Helvetica,sans-Serif" font-size="10.00" fill="#000000">+ trx_id : text</text>
<text text-anchor="start" x="14.945" y="-91.5" font-family="Helvetica,sans-Serif" font-size="10.00" fill="#000000">+ contract_name : text</text>
<text text-anchor="start" x="14.945" y="-79.5" font-family="Helvetica,sans-Serif" font-size="10.00" fill="#000000">+ action : text</text>
<text text-anchor="start" x="14.945" y="-67.5" font-family="Helvetica,sans-Serif" font-size="10.00" fill="#000000">+ authorization : object</text>
<text text-anchor="start" x="14.945" y="-55.5" font-family="Helvetica,sans-Serif" font-size="10.00" fill="#000000">+ data : object</text>
<text text-anchor="start" x="14.945" y="-43.5" font-family="Helvetica,sans-Serif" font-size="10.00" fill="#000000">+ rawData : object</text>
<text text-anchor="start" x="14.945" y="-31.5" font-family="Helvetica,sans-Serif" font-size="10.00" fill="#000000">+ createdAt : date</text>
<text text-anchor="start" x="14.945" y="-19.5" font-family="Helvetica,sans-Serif" font-size="10.00" fill="#000000">+ updatedAt : date</text>
<text text-anchor="start" x="14.945" y="-7.5" font-family="Helvetica,sans-Serif" font-size="10.00" fill="#000000">+ id : serial</text>
</a>
</g>
</g>
<!-- blocks&#45;&gt;actions -->
<g id="edge1" class="edge">
<title>blocks&#45;&gt;actions</title>
<path fill="none" stroke="#000000" stroke-dasharray="5,2" d="M43.4256,-185.1083C41.9159,-179.047 40.6288,-172.9429 39.704,-167 38.6725,-160.3713 38.5115,-153.5426 38.9854,-146.719"/>
<polygon fill="#000000" stroke="#000000" points="42.4671,-147.0777 40.1068,-136.7491 35.5109,-146.2952 42.4671,-147.0777"/>
<text text-anchor="middle" x="56.2165" y="-158" font-family="Helvetica,sans-Serif" font-size="10.00" fill="#000000">actions</text>
</g>
<!-- actions&#45;&gt;blocks -->
<g id="edge3" class="edge">
<title>actions&#45;&gt;blocks</title>
<path fill="none" stroke="#000000" stroke-dasharray="5,2" d="M71.2677,-136.5684C71.6444,-146.7644 71.7454,-157.1557 71.379,-167 71.2798,-169.6653 71.1622,-172.3792 71.0295,-175.1197"/>
<polygon fill="none" stroke="#000000" points="67.5339,-174.9458 70.4886,-185.1202 74.5237,-175.3239 67.5339,-174.9458"/>
<text text-anchor="middle" x="85.5475" y="-158" font-family="Helvetica,sans-Serif" font-size="10.00" fill="#000000">blocks</text>
</g>
<!-- actions&#45;&gt;actions -->
<g id="edge2" class="edge">
<title>actions&#45;&gt;actions</title>
<path fill="none" stroke="#000000" stroke-dasharray="5,2" d="M124.0237,-84.7382C134.4972,-82.6276 141.813,-77.2148 141.813,-68.5 141.813,-62.7809 138.6624,-58.4839 133.5362,-55.609"/>
<polygon fill="#000000" stroke="#000000" points="134.6185,-52.2795 124.0237,-52.2618 132.2951,-58.8826 134.6185,-52.2795"/>
<text text-anchor="middle" x="172.097" y="-65.5" font-family="Helvetica,sans-Serif" font-size="10.00" fill="#000000">inline_actions</text>
</g>
</g>
</svg>
