<?xml version="1.0" encoding="UTF-8" standalone="no"?>
<!DOCTYPE svg PUBLIC "-//W3C//DTD SVG 1.1//EN"
 "http://www.w3.org/Graphics/SVG/1.1/DTD/svg11.dtd">
<!-- Generated by graphviz version 2.40.1 (20161225.0304)
 -->
<!-- Title: %0 Pages: 1 -->
<svg width="225pt" height="318pt"
 viewBox="0.00 0.00 225.39 318.00" xmlns="http://www.w3.org/2000/svg" xmlns:xlink="http://www.w3.org/1999/xlink">
<g id="graph0" class="graph" transform="scale(1 1) rotate(0) translate(4 314)">
<title>%0</title>
<polygon fill="#ffffff" stroke="transparent" points="-4,4 -4,-314 221.391,-314 221.391,4 -4,4"/>
<!-- blocks -->
<g id="node1" class="node">
<title>blocks</title>
<g id="a_node1"><a xlink:title="blocks">
<polygon fill="#ffffff" stroke="#000000" points="0,-.5 0,-124.5 130.758,-124.5 130.758,-.5 0,-.5"/>
<text text-anchor="middle" x="65.379" y="-111.5" font-family="Helvetica,sans-Serif" font-size="10.00" fill="#000000">blocks</text>
<polyline fill="none" stroke="#000000" points="0,-104.5 130.758,-104.5 "/>
<text text-anchor="start" x="8" y="-91.5" font-family="Helvetica,sans-Serif" font-size="10.00" fill="#000000">+ block_time : date</text>
<text text-anchor="start" x="8" y="-79.5" font-family="Helvetica,sans-Serif" font-size="10.00" fill="#000000">+ block_num : integer</text>
<text text-anchor="start" x="8" y="-67.5" font-family="Helvetica,sans-Serif" font-size="10.00" fill="#000000">+ producer_block_id : text</text>
<text text-anchor="start" x="8" y="-55.5" font-family="Helvetica,sans-Serif" font-size="10.00" fill="#000000">+ count : integer</text>
<text text-anchor="start" x="8" y="-43.5" font-family="Helvetica,sans-Serif" font-size="10.00" fill="#000000">+ status : enum</text>
<text text-anchor="start" x="8" y="-31.5" font-family="Helvetica,sans-Serif" font-size="10.00" fill="#000000">+ createdAt : date</text>
<text text-anchor="start" x="8" y="-19.5" font-family="Helvetica,sans-Serif" font-size="10.00" fill="#000000">+ updatedAt : date</text>
<text text-anchor="start" x="8" y="-7.5" font-family="Helvetica,sans-Serif" font-size="10.00" fill="#000000">+ id : serial</text>
</a>
</g>
</g>
<!-- transactions -->
<g id="node2" class="node">
<title>transactions</title>
<g id="a_node2"><a xlink:title="transactions">
<polygon fill="#ffffff" stroke="#000000" points="6.945,-173.5 6.945,-309.5 123.813,-309.5 123.813,-173.5 6.945,-173.5"/>
<text text-anchor="middle" x="65.379" y="-296.5" font-family="Helvetica,sans-Serif" font-size="10.00" fill="#000000">transactions</text>
<polyline fill="none" stroke="#000000" points="6.945,-289.5 123.813,-289.5 "/>
<text text-anchor="start" x="14.945" y="-276.5" font-family="Helvetica,sans-Serif" font-size="10.00" fill="#000000">+ trx_id : text</text>
<text text-anchor="start" x="14.945" y="-264.5" font-family="Helvetica,sans-Serif" font-size="10.00" fill="#000000">+ contract_name : text</text>
<text text-anchor="start" x="14.945" y="-252.5" font-family="Helvetica,sans-Serif" font-size="10.00" fill="#000000">+ action : text</text>
<text text-anchor="start" x="14.945" y="-240.5" font-family="Helvetica,sans-Serif" font-size="10.00" fill="#000000">+ authorization : object</text>
<text text-anchor="start" x="14.945" y="-228.5" font-family="Helvetica,sans-Serif" font-size="10.00" fill="#000000">+ data : object</text>
<text text-anchor="start" x="14.945" y="-216.5" font-family="Helvetica,sans-Serif" font-size="10.00" fill="#000000">+ rawData : object</text>
<text text-anchor="start" x="14.945" y="-204.5" font-family="Helvetica,sans-Serif" font-size="10.00" fill="#000000">+ createdAt : date</text>
<text text-anchor="start" x="14.945" y="-192.5" font-family="Helvetica,sans-Serif" font-size="10.00" fill="#000000">+ updatedAt : date</text>
<text text-anchor="start" x="14.945" y="-180.5" font-family="Helvetica,sans-Serif" font-size="10.00" fill="#000000">+ id : serial</text>
</a>
</g>
</g>
<!-- transactions&#45;&gt;blocks -->
<g id="edge1" class="edge">
<title>transactions&#45;&gt;blocks</title>
<path fill="none" stroke="#000000" stroke-dasharray="5,2" d="M65.379,-173.3171C65.379,-160.6878 65.379,-147.4572 65.379,-134.7127"/>
<polygon fill="none" stroke="#000000" points="68.8791,-134.6168 65.379,-124.6169 61.8791,-134.6169 68.8791,-134.6168"/>
<text text-anchor="middle" x="90.386" y="-146" font-family="Helvetica,sans-Serif" font-size="10.00" fill="#000000">blocks_has</text>
</g>
<!-- transactions&#45;&gt;transactions -->
<g id="edge2" class="edge">
<title>transactions&#45;&gt;transactions</title>
<path fill="none" stroke="#000000" stroke-dasharray="5,2" d="M124.0237,-257.7382C134.4972,-255.6276 141.813,-250.2148 141.813,-241.5 141.813,-235.7809 138.6624,-231.4839 133.5362,-228.609"/>
<polygon fill="none" stroke="#000000" points="134.6185,-225.2795 124.0237,-225.2618 132.2951,-231.8826 134.6185,-225.2795"/>
<text text-anchor="middle" x="179.602" y="-238.5" font-family="Helvetica,sans-Serif" font-size="10.00" fill="#000000">transactions_has</text>
</g>
</g>
</svg>
